<?xml version="1.0" encoding="utf-8"?>
<!-- Generator: Adobe Illustrator 19.2.1, SVG Export Plug-In . SVG Version: 6.00 Build 0)  -->
<svg version="1.1" id="layer" xmlns="http://www.w3.org/2000/svg" xmlns:xlink="http://www.w3.org/1999/xlink" x="0px" y="0px"
	 viewBox="0 0 652 652" style="enable-background:new 0 0 652 652;" xml:space="preserve">
<style type="text/css">
	.st0{fill:#E50012;}
	.st1{fill:#FFD700;}
	.st2{fill:#82BC00;}
	.st3{fill:#FFFFFF;}
</style>
<path class="st0" d="M609.9,249c-0.5-3.6-3.2-6.5-6.8-7.2c-25.9-5.1-133.6-24-275.3-21l-11.7,0.3c-141.7,3.1-248.4,26.7-274.1,32.8
	c-3.6,0.9-6.2,3.9-6.5,7.5L25.2,373.5c0,0.2,0.1,0.4,0.4,0.4c160.4-11.4,255.3,23.3,288,42.4c7.9,4.6,17.7,4.4,25.4-0.5
	c31.8-20.5,125.1-59.3,285.9-54.8c0.2,0,0.4-0.2,0.3-0.4L609.9,249z"/>
<path class="st1" d="M25.2,373.5l0.2-1.9c110.4-13.2,270.3-10.9,354.9,34.2c-13.8,5.9-34.7,18.1-41,22.2c-7.7,5-17.5,5.2-25.4,0.6
	c-6.5-3.8-15.4-8.6-26.9-13.7C241,394,155.1,367.4,27.8,376.1C26.2,376.3,25,375,25.2,373.5"/>
<path class="st2" d="M625.1,360.5l-0.2-1.9c-110.8-8.5-270.8,0.9-353.3,49.6c14,5.3,35.4,16.3,42.2,20.3c8.3,4.8,17.7,4.4,25.4-0.6
	c6.3-4.1,15-9,26.3-14.9c44.5-23.5,129.6-53,257.2-49.7C624.2,363.3,625.4,362.1,625.1,360.5"/>
<path class="st3" d="M127.7,301.9c6,2.4,9.4,7.5,9.5,14.1c0.2,11.3-7.1,19.2-20,19.5l-29.9,0.6L86,271.9l27.3-0.6
	c11.8-0.3,20.4,6.6,20.6,18.6C134,294.6,131.7,299.3,127.7,301.9 M99.9,283.4l0.3,14.6l12.6-0.3c4.7-0.1,7.6-2.7,7.6-7.1
	c0-4.7-3.1-7.7-7.9-7.6L99.9,283.4z M100.5,309.2l0.3,14.7l15.3-0.3c4.7-0.1,7.4-2.9,7.6-7.3c0-2.6-1-4.9-3-6.3
	c-1.6-1.1-3.4-1.2-5.5-1.2L100.5,309.2z"/>
<path class="st3" d="M199.7,331.8l0,1.9l-8.5,0.2c-6.8,0.1-9.7-5.1-9.7-5.1l-10.3-15.7l-11.5,0.2l0.5,21.3l-13.8,0.3l-1.4-64.4
	c9.2-0.2,18.3-0.5,27.5-0.6c14.7-0.3,23,10.2,23.2,21.6c0.2,8.2-3.8,15.5-11.1,19.2L199.7,331.8z M173.2,301.7
	c5.8-0.1,9.5-4.7,9.3-10.2c-0.1-5.4-3.8-9.7-9.7-9.5l-13.8,0.3l0.4,19.8L173.2,301.7z"/>
<rect x="207.8" y="269.1" transform="matrix(0.9998 -2.110187e-002 2.110187e-002 0.9998 -6.3103 4.5986)" class="st3" width="13.8" height="64.4"/>
<rect x="473.8" y="263.4" transform="matrix(0.9998 -2.141043e-002 2.141043e-002 0.9998 -6.218 10.3601)" class="st3" width="13.8" height="64.4"/>
<path class="st3" d="M230,280.7l-0.3-12l53.2-1.1l-3.6,8.1c-1.1,2.4-3.4,4-6.1,4.1l-12,0.3l1.1,52.4l-13.3,0.3l-1.1-52.4L230,280.7z
	"/>
<path class="st3" d="M290.8,321.2l-4.7,10.8l-14.4,0.3l0-1.8l28.3-63.7l6.4-0.1l30.8,62.5l0,1.8l-14.3,0.3l-5.3-10.6L290.8,321.2z
	 M295.1,309.5l17.9-0.4l-9.4-21.1L295.1,309.5z"/>
<polygon class="st3" points="356.2,293.7 357,330.4 343.3,330.7 341.9,266.1 346.2,266 383.2,302 382.4,265.5 396.2,265.2 
	397.6,329.8 393.4,329.8 "/>
<polygon class="st3" points="421.9,292.2 422.7,329 409,329.3 407.6,264.7 411.9,264.6 448.9,300.6 448.1,264.1 461.9,263.8 
	463.2,328.3 459.1,328.4 "/>
<path class="st3" d="M515.1,316.4l-4.7,10.8l-14.4,0.3l0-1.8l28.3-63.7l6.3-0.1l30.8,62.5l0,1.8l-14.3,0.3l-5.3-10.6L515.1,316.4z
	 M519.4,304.7l17.8-0.4l-9.4-21.1L519.4,304.7z"/>
</svg>
