<svg id="Layer_1" data-name="Layer 1" xmlns="http://www.w3.org/2000/svg" viewBox="0 0 202.496 202.496">
  <defs>
    <style>
      .cls-1 {
        fill: #fff;
      }
    </style>
  </defs>
  <title>user</title>
  <path class="cls-1" d="M695.496,421.14a101.24867,101.24867,0,0,0-171.332-73.074,5.99935,5.99935,0,0,0,8.305,8.66,89.254,89.254,0,1,1-1.934,126.899c.102-.43.211-.852.32-1.27805.086-.34.168-.679.258-1.015.141-.512.297-1.016.453-1.524.09-.297.176-.601.27-.898.187-.582.391-1.153.598-1.723.078-.219.144-.437.226-.652q.873-2.35647,1.942-4.602c.105-.226.222-.441.332-.664.254-.519.507-1.043.777-1.551.144-.269.297-.535.441-.8.25-.454.496-.911.758-1.356.164-.285.344-.566.516-.851.254-.415.504-.833.765-1.243.188-.293.383-.574.579-.863.261-.391.519-.785.792-1.172.204-.289.415-.57.626-.855.273-.375.542-.746.824-1.11.218-.285.449-.566.672-.847.285-.352.566-.707.855-1.055.234-.277.477-.551.715-.828.293-.336.59-.672.891-1.004.246-.27.5-.535.753-.801q.45747-.486.926-.957c.258-.265.524-.519.789-.777.317-.305.633-.613.957-.91.274-.254.551-.5.828-.746.329-.293.657-.582.993-.868.281-.242.57-.48.859-.714q.51-.417,1.023-.821c.293-.23.594-.457.891-.679.352-.262.699-.52,1.055-.774.308-.219.613-.434.926-.644.359-.247.718-.489,1.082-.727.316-.207.632-.41.953-.609q.55052-.34649,1.113-.68c.324-.191.652-.383.98-.57.379-.215.758-.426,1.141-.633.336-.18.668-.356,1.008-.531.387-.2.777-.391,1.168-.582.344-.165.683-.329,1.027-.489.399-.183.801-.359,1.203-.535.348-.152.692-.301,1.043-.445.41-.168.821-.328,1.231-.485.355-.136.707-.273,1.062-.402.418-.152.84-.293,1.262-.434.359-.121.715-.242,1.078-.355.426-.133.859-.258,1.293-.383.359-.101.719-.211,1.082-.308.441-.118.887-.223,1.332-.332.363-.086.723-.18,1.086-.258.453-.102.914-.188,1.375-.278.359-.07.715-.148,1.078-.211.473-.085.953-.152,1.426-.226.355-.051.707-.113,1.062-.16.5-.067,1.008-.114,1.512-.168.336-.035.668-.078,1.004-.11.563-.046,1.129-.078,1.695-.113.286-.016.567-.043.852-.055.852-.039,1.711-.058,2.57-.058h14.77A57.65122,57.65122,0,0,1,646.281,460a5.9997,5.9997,0,0,0,9.262-7.629,69.63443,69.63443,0,0,0-35.906-23.11,38.33627,38.33627,0,1,0-50.778-.004c-.195.055-.394.106-.593.157q-1.23149.339-2.446.726c-.101.031-.203.059-.3.09-.911.289-1.809.602-2.704.93-.277.101-.55.211-.828.316-.613.235-1.222.469-1.828.719-.336.141-.664.285-.996.43-.543.234-1.082.468-1.613.718-.348.16-.692.325-1.039.493-.512.246-1.02.5-1.528.757-.343.176-.683.356-1.023.535-.508.274-1.012.551-1.512.836-.324.184-.648.364-.969.551-.527.313-1.046.633-1.562.953-.285.176-.57.348-.848.528-.644.414-1.277.843-1.906,1.277-.144.098-.293.191-.434.293q-1.15353.80851-2.269,1.664c-.219.164-.426.34-.641.504-.527.414-1.05.828-1.562,1.254-.274.226-.539.457-.809.687-.445.383-.89.766-1.328,1.161-.281.253-.559.511-.836.769-.414.387-.824.773-1.23,1.172q-.411.40348-.821.812-.597.60447-1.183,1.231c-.258.273-.52.543-.774.824-.402.442-.797.891-1.191,1.344-.223.262-.453.515-.676.777-.461.551-.914,1.113-1.359,1.68-.137.176-.281.344-.418.519-.574.747-1.137,1.5-1.684,2.27-.148.203-.285.414-.426.621-.398.57-.793,1.145-1.171,1.72705-.192.296-.375.59695-.563.894-.32.508-.637,1.016-.945,1.531-.196.329-.383.661-.574.993-.286.5-.567,1-.84,1.507-.188.344-.371.692-.551,1.039-.266.512-.524,1.028-.774,1.543-.171.348-.339.7-.507,1.051-.254.543-.496,1.094-.739,1.649-.144.332-.293.66-.429.996-.27.644-.528,1.297-.778,1.953-.093.25-.195.492-.289.742a.74734.74734,0,0,1-.043.109A88.99445,88.99445,0,0,1,505,421.14a6,6,0,1,0-12,0,101.24157,101.24157,0,0,0,175.895,68.391l.003-.004a100.96531,100.96531,0,0,0,26.598-68.387ZM594.25,374.242a26.334,26.334,0,1,1-26.336,26.332,26.36118,26.36118,0,0,1,26.336-26.332Zm0,0" transform="translate(-493 -319.89)"/>
</svg>
